{
  "source": "C:\\Users\\Peter\\Desktop\\stuff\\MIUN\\quantitative_research\\video_compression\\videos\\BVI-HD\\BVI-HD_CDVL_videos\\ORIG\\Lightreef_1920x1080_30fps.mp4",
  "output": "C:\\Users\\Peter\\Desktop\\stuff\\MIUN\\quantitative_research\\video_compression\\compressed_videos\\BVI-HD\\vp9\\1\\Lightreef_1920x1080_30fps_vp9.webm",
  "codec": "vp9",
  "ok": "Input #0, mov,mp4,m4a,3gp,3g2,mj2, from 'C:\\Users\\Peter\\Desktop\\stuff\\MIUN\\quantitative_research\\video_compression\\videos\\BVI-HD\\BVI-HD_CDVL_videos\\ORIG\\Lightreef_1920x1080_30fps.mp4':\n  Metadata:\n    major_brand     : isom\n    minor_version   : 512\n    compatible_brands: isomiso2avc1mp41\n    encoder         : Lavf54.28.101\n  Duration: 00:00:05.00, start: 0.000000, bitrate: 361719 kb/s\n  Stream #0:0[0x1](und): Video: h264 (High 4:4:4 Predictive) (avc1 / 0x31637661), yuv420p(progressive), 1920x1080, 361715 kb/s, 30 fps, 30 tbr, 30 tbn (default)\n    Metadata:\n      handler_name    : VideoHandler\n      vendor_id       : [0][0][0][0]\n[out#0/webm @ 0000024a31de9700] Codec AVOption b:a (set bitrate (in bits/s)) has not been used for any stream. The most likely reason is either wrong type (e.g. a video option with no video streams) or that it is a private option of some decoder which was not actually used for any stream.\nStream mapping:\n  Stream #0:0 -> #0:0 (h264 (native) -> vp9 (libvpx-vp9))\nPress [q] to stop, [?] for help\n[libvpx-vp9 @ 0000024a329f0440] v1.15.2-100-g40561f514\nOutput #0, webm, to 'C:\\Users\\Peter\\Desktop\\stuff\\MIUN\\quantitative_research\\video_compression\\compressed_videos\\BVI-HD\\vp9\\1\\Lightreef_1920x1080_30fps_vp9.webm':\n  Metadata:\n    major_brand     : isom\n    minor_version   : 512\n    compatible_brands: isomiso2avc1mp41\n    encoder         : Lavf62.3.100\n  Stream #0:0(und): Video: vp9, yuv420p(tv, progressive), 1920x1080, q=2-31, 1000 kb/s, 30 fps, 1k tbn (default)\n    Metadata:\n      encoder         : Lavc62.11.100 libvpx-vp9\n      handler_name    : VideoHandler\n      vendor_id       : [0][0][0][0]\n    Side data:\n      cpb: bitrate max/min/avg: 0/0/0 buffer size: 1000000 vbv_delay: N/A\nframe=    0 fps=0.0 q=0.0 size=       0KiB time=N/A bitrate=N/A speed=N/A elapsed=0:00:00.51    \nframe=    0 fps=0.0 q=0.0 size=       0KiB time=N/A bitrate=N/A speed=N/A elapsed=0:00:01.04    \nframe=    6 fps=3.8 q=62.0 size=       1KiB time=00:00:00.20 bitrate=  25.4kbits/s speed=0.127x elapsed=0:00:01.57    \nframe=   10 fps=4.7 q=61.0 size=       1KiB time=00:00:00.33 bitrate=  15.2kbits/s speed=0.157x elapsed=0:00:02.12    \nframe=   15 fps=5.7 q=59.0 size=       1KiB time=00:00:00.50 bitrate=  10.1kbits/s speed=0.188x elapsed=0:00:02.65    \nframe=   19 fps=6.0 q=59.0 size=       1KiB time=00:00:00.63 bitrate=   8.0kbits/s speed=0.199x elapsed=0:00:03.18    \nframe=   22 fps=5.9 q=60.0 size=       1KiB time=00:00:00.73 bitrate=   6.9kbits/s speed=0.196x elapsed=0:00:03.73    \nframe=   26 fps=6.1 q=60.0 size=       1KiB time=00:00:00.86 bitrate=   5.9kbits/s speed=0.203x elapsed=0:00:04.26    \nframe=   30 fps=6.3 q=59.0 size=       1KiB time=00:00:01.00 bitrate=   5.1kbits/s speed=0.208x elapsed=0:00:04.79    \nframe=   34 fps=6.4 q=59.0 size=       1KiB time=00:00:01.13 bitrate=   4.5kbits/s speed=0.213x elapsed=0:00:05.32    \nframe=   38 fps=6.5 q=59.0 size=       1KiB time=00:00:01.26 bitrate=   4.0kbits/s speed=0.217x elapsed=0:00:05.84    \nframe=   42 fps=6.6 q=57.0 size=       1KiB time=00:00:01.40 bitrate=   3.6kbits/s speed=0.22x elapsed=0:00:06.37    \nframe=   46 fps=6.7 q=58.0 size=       1KiB time=00:00:01.53 bitrate=   3.3kbits/s speed=0.222x elapsed=0:00:06.89    \nframe=   50 fps=6.7 q=58.0 size=       1KiB time=00:00:01.66 bitrate=   3.0kbits/s speed=0.224x elapsed=0:00:07.43    \nframe=   53 fps=6.6 q=57.0 size=       1KiB time=00:00:01.76 bitrate=   2.9kbits/s speed=0.221x elapsed=0:00:07.97    \nframe=   56 fps=6.6 q=59.0 size=       1KiB time=00:00:01.86 bitrate=   2.7kbits/s speed=0.219x elapsed=0:00:08.51    \nframe=   60 fps=6.6 q=57.0 size=       1KiB time=00:00:02.00 bitrate=   2.5kbits/s speed=0.222x elapsed=0:00:09.02    \nframe=   64 fps=6.7 q=59.0 size=       1KiB time=00:00:02.13 bitrate=   2.4kbits/s speed=0.223x elapsed=0:00:09.55    \nframe=   66 fps=6.5 q=60.0 size=       1KiB time=00:00:02.20 bitrate=   2.3kbits/s speed=0.218x elapsed=0:00:10.08    \nframe=   71 fps=6.7 q=60.0 size=       1KiB time=00:00:02.36 bitrate=   2.1kbits/s speed=0.223x elapsed=0:00:10.60    \nframe=   74 fps=6.6 q=61.0 size=       1KiB time=00:00:02.46 bitrate=   2.1kbits/s speed=0.222x elapsed=0:00:11.12    \nframe=   78 fps=6.7 q=60.0 size=       1KiB time=00:00:02.60 bitrate=   2.0kbits/s speed=0.223x elapsed=0:00:11.66    \nframe=   82 fps=6.7 q=60.0 size=       1KiB time=00:00:02.73 bitrate=   1.9kbits/s speed=0.224x elapsed=0:00:12.20    \nframe=   86 fps=6.7 q=61.0 size=       1KiB time=00:00:02.86 bitrate=   1.8kbits/s speed=0.225x elapsed=0:00:12.74    \nframe=   89 fps=6.7 q=53.0 size=       1KiB time=00:00:02.96 bitrate=   1.7kbits/s speed=0.223x elapsed=0:00:13.27    \nframe=   93 fps=6.7 q=60.0 size=       1KiB time=00:00:03.10 bitrate=   1.6kbits/s speed=0.225x elapsed=0:00:13.80    \nframe=   96 fps=6.7 q=60.0 size=       1KiB time=00:00:03.20 bitrate=   1.6kbits/s speed=0.224x elapsed=0:00:14.31    \nframe=  100 fps=6.7 q=61.0 size=       1KiB time=00:00:03.33 bitrate=   1.5kbits/s speed=0.225x elapsed=0:00:14.83    \nframe=  104 fps=6.8 q=61.0 size=       1KiB time=00:00:03.46 bitrate=   1.5kbits/s speed=0.226x elapsed=0:00:15.36    \nframe=  107 fps=6.7 q=54.0 size=       1KiB time=00:00:03.56 bitrate=   1.4kbits/s speed=0.225x elapsed=0:00:15.88    \nframe=  112 fps=6.8 q=61.0 size=       1KiB time=00:00:03.73 bitrate=   1.4kbits/s speed=0.228x elapsed=0:00:16.40    \nframe=  115 fps=6.8 q=59.0 size=       1KiB time=00:00:03.83 bitrate=   1.3kbits/s speed=0.227x elapsed=0:00:16.92    \nframe=  119 fps=6.8 q=52.0 size=       1KiB time=00:00:03.96 bitrate=   1.3kbits/s speed=0.227x elapsed=0:00:17.45    \nframe=  123 fps=6.8 q=60.0 size=       1KiB time=00:00:04.10 bitrate=   1.2kbits/s speed=0.228x elapsed=0:00:17.99    \nframe=  126 fps=6.8 q=60.0 size=       1KiB time=00:00:04.20 bitrate=   1.2kbits/s speed=0.227x elapsed=0:00:18.50    \nframe=  126 fps=6.6 q=60.0 size=       1KiB time=00:00:04.20 bitrate=   1.2kbits/s speed=0.221x elapsed=0:00:19.03    \nframe=  126 fps=6.4 q=60.0 size=       1KiB time=00:00:04.20 bitrate=   1.2kbits/s speed=0.215x elapsed=0:00:19.57    \nframe=  126 fps=6.3 q=60.0 size=       1KiB time=00:00:04.20 bitrate=   1.2kbits/s speed=0.209x elapsed=0:00:20.11    \nframe=  126 fps=6.1 q=60.0 size=       1KiB time=00:00:04.20 bitrate=   1.2kbits/s speed=0.204x elapsed=0:00:20.63    \nframe=  126 fps=6.0 q=60.0 size=       1KiB time=00:00:04.20 bitrate=   1.2kbits/s speed=0.199x elapsed=0:00:21.14    \n[out#0/webm @ 0000024a31de9700] video:805KiB audio:0KiB subtitle:0KiB other streams:0KiB global headers:0KiB muxing overhead: 0.213564%\nframe=  150 fps=7.0 q=62.0 Lsize=     807KiB time=00:00:05.00 bitrate=1321.4kbits/s speed=0.232x elapsed=0:00:21.57    \n",
  "seconds": 21.87746000289917,
  "probe_out": {}
}